<?xml version="1.0" encoding="utf-8"?>
<!-- Generator: Adobe Illustrator 28.3.0, SVG Export Plug-In . SVG Version: 6.00 Build 0)  -->
<svg version="1.1" id="Layer_1" xmlns="http://www.w3.org/2000/svg" xmlns:xlink="http://www.w3.org/1999/xlink" x="0px" y="0px"
	 viewBox="0 0 267 203.1" style="enable-background:new 0 0 267 203.1;" xml:space="preserve">
<style type="text/css">
	.st0{fill:#FFFFFF;}
</style>
<polygon id="foundation" class="st0" points="141.8,190.6 150.6,177.2 152.7,174 163.5,157.7 171.9,145 95.1,145 103.5,157.7 
	114.3,174 116.3,177.2 125.2,190.6 126.8,193 129.8,197.5 131.5,200.1 132,200.8 132.1,201 133.5,203.1 134.9,201 135,200.8 
	135.5,200.1 137.2,197.5 140.2,193 "/>
<path id="top" class="st0" d="M96,136.7h75.1h5.7L267,0H0l90.3,136.7H96z M172.6,129.1h-7.2h-27.9v-14.3V70h74.2L172.6,129.1z
	 M184.4,7.6h68.4l-36.2,54.9h-32.2L184.4,7.6L184.4,7.6z M97.6,7.6h79.2v54.8H97.6L97.6,7.6L97.6,7.6z M14.1,7.6H90v54.8H50.3
	L14.1,7.6z M129.8,70v44.8v14.3h-28.2h-7.2L55.4,70H129.8L129.8,70z"/>
</svg>
