<?xml version="1.0" encoding="utf-8"?>
<!-- Generator: Adobe Illustrator 28.3.0, SVG Export Plug-In . SVG Version: 6.00 Build 0)  -->
<svg version="1.1" id="Layer_1" xmlns="http://www.w3.org/2000/svg" xmlns:xlink="http://www.w3.org/1999/xlink" x="0px" y="0px"
	 viewBox="0 0 228 226.8" style="enable-background:new 0 0 228 226.8;" xml:space="preserve">
<style type="text/css">
	.st0{fill:#FFFFFF;}
</style>
<ellipse class="st0" cx="114" cy="113.4" rx="114" ry="113.4"/>
<g>
	<polygon points="120,198.1 126.4,188.4 128,186.1 135.8,174.2 141.9,164.9 86.1,164.9 92.2,174.2 100,186.1 101.6,188.4 108,198.1 
		109.2,199.9 111.3,203.1 112.5,205 112.9,205.5 113,205.6 114,207.2 115,205.6 115.1,205.5 115.5,205 116.7,203.1 118.8,199.9 	"/>
	<path d="M86.7,158.9h58.6L211,59.6H17l65.6,99.3H86.7z M142.4,153.4h-25.5v-42.9h53.9L142.4,153.4z M151,65.1h49.7L174.4,105H151
		L151,65.1L151,65.1z M87.9,65.1h57.6V105H87.9V65.1z M27.3,65.1h55.1V105H53.6L27.3,65.1z M111.4,110.5v42.9H85.6l-28.4-42.9
		C57.2,110.5,111.4,110.5,111.4,110.5z"/>
</g>
</svg>
