<?xml version="1.0" encoding="utf-8"?>
<!-- Generator: Adobe Illustrator 25.2.3, SVG Export Plug-In . SVG Version: 6.00 Build 0)  -->
<svg version="1.1" id="Layer_1" xmlns="http://www.w3.org/2000/svg" xmlns:xlink="http://www.w3.org/1999/xlink" x="0px" y="0px" xml:space="preserve">
<style type="text/css">
	.st0{fill:#FFFFFF;}
</style>
<rect width="960" height="960"/>
<g>
	<path class="st0" d="M478.38,549.31v92.27c0,0.78,0.64,1.42,1.42,1.42h0.39c0.78,0,1.42-0.64,1.42-1.42v-92.27
		c-0.54,0.02-1.08,0.03-1.62,0.03C479.46,549.34,478.92,549.33,478.38,549.31z"/>
	<path class="st0" d="M439.31,491.04H328.64c-0.78,0-1.42,0.64-1.42,1.42v0.39c0,0.78,0.64,1.42,1.42,1.42h109.63
		C438.57,493.18,438.92,492.1,439.31,491.04z"/>
	<path class="st0" d="M436.98,500.69l-30.88,3.2l0.3,2.88l30.32-3.14C436.77,502.64,436.86,501.66,436.98,500.69z"/>
	<path class="st0" d="M375.67,528.03l0.1,0.38c0.19,0.76,0.96,1.22,1.72,1.03l60-15c-0.21-1.06-0.38-2.12-0.51-3.21l-60.27,15.07
		C375.94,526.5,375.48,527.27,375.67,528.03z"/>
	<path class="st0" d="M417.85,534.34c0.33,0.71,1.18,1.02,1.89,0.69l21.33-9.95c-0.42-0.87-0.82-1.75-1.19-2.64l-21.37,9.97
		c-0.71,0.33-1.02,1.18-0.69,1.89L417.85,534.34z"/>
	<path class="st0" d="M446,532.88l-89.4,59.49c-0.65,0.43-0.83,1.32-0.4,1.97l0.22,0.33c0.43,0.65,1.32,0.83,1.97,0.4l89.72-59.7
		C447.38,534.56,446.67,533.73,446,532.88z"/>
	<path class="st0" d="M433.39,565.08l0.05,0.04c0.59,0.52,1.49,0.45,2-0.14l20.18-23.15c-0.8-0.55-1.59-1.12-2.35-1.72l-20.02,22.96
		C432.74,563.67,432.8,564.57,433.39,565.08z"/>
	<path class="st0" d="M463.91,546.26l-34.52,54c-0.42,0.66-0.23,1.54,0.43,1.96l0.33,0.21c0.66,0.42,1.54,0.23,1.96-0.43
		l34.92-54.63C465.98,547.04,464.93,546.67,463.91,546.26z"/>
	<path class="st0" d="M459.7,582.49c-0.26,0.72,0.1,1.53,0.82,1.81l0.05,0.02c0.74,0.29,1.58-0.09,1.85-0.84l12.47-34.44
		c-0.98-0.11-1.94-0.26-2.9-0.44L459.7,582.49z"/>
	<path class="st0" d="M631.36,491.04H520.69c0.39,1.06,0.74,2.14,1.05,3.23h109.63c0.78,0,1.42-0.64,1.42-1.42v-0.39
		C632.78,491.67,632.15,491.04,631.36,491.04z"/>
	<path class="st0" d="M553.6,506.78l0.3-2.88l-30.88-3.2c0.12,0.97,0.21,1.95,0.26,2.94L553.6,506.78z"/>
	<path class="st0" d="M582.52,529.45c0.76,0.19,1.53-0.27,1.72-1.03l0.1-0.38c0.19-0.76-0.27-1.53-1.03-1.72l-60.27-15.07
		c-0.13,1.08-0.3,2.15-0.51,3.21L582.52,529.45z"/>
	<path class="st0" d="M518.93,525.08l21.33,9.95c0.71,0.33,1.56,0.02,1.89-0.69l0.03-0.05c0.33-0.71,0.02-1.55-0.69-1.89
		l-21.37-9.97C519.75,523.33,519.36,524.21,518.93,525.08z"/>
	<path class="st0" d="M603.4,592.37L514,532.88c-0.67,0.85-1.38,1.68-2.12,2.48l89.72,59.7c0.65,0.43,1.53,0.26,1.97-0.4l0.22-0.33
		C604.23,593.68,604.05,592.8,603.4,592.37z"/>
	<path class="st0" d="M524.56,564.99c0.52,0.59,1.41,0.65,2,0.14l0.05-0.04c0.59-0.52,0.65-1.41,0.14-2l-20.02-22.96
		c-0.76,0.6-1.55,1.17-2.35,1.72L524.56,564.99z"/>
	<path class="st0" d="M496.09,546.26c-1.02,0.41-2.07,0.78-3.13,1.11L527.88,602c0.42,0.66,1.3,0.85,1.96,0.43l0.33-0.21
		c0.66-0.42,0.85-1.3,0.43-1.96L496.09,546.26z"/>
	<path class="st0" d="M488.01,548.6c-0.96,0.18-1.92,0.33-2.9,0.44l12.47,34.44c0.27,0.75,1.11,1.13,1.85,0.84l0.05-0.02
		c0.72-0.28,1.08-1.08,0.82-1.81L488.01,548.6z"/>
	<polygon class="st0" points="488.29,507.58 497.13,494.2 499.22,491.04 510,474.72 518.4,461.99 441.6,461.99 450,474.72 
		460.78,491.04 462.87,494.2 471.71,507.58 473.32,510.02 476.28,514.49 477.98,517.08 478.49,517.85 478.59,517.99 480,520.13 
		481.41,517.99 481.52,517.83 482.02,517.08 483.72,514.49 486.68,510.02 	"/>
	<path class="st0" d="M442.48,453.7h75.05h5.65l90.3-136.7l-266.94,0.01l90.29,136.69H442.48z M519.09,446.11h-7.21h-27.93v-14.26
		v-44.82h74.17L519.09,446.11z M530.92,324.59l68.44,0l-36.23,54.85h-32.21V324.59z M444.11,324.6l79.22,0v54.84h-79.22V324.6z
		 M360.64,324.6l75.88,0v54.84h-39.66L360.64,324.6z M476.36,387.03v44.79v14.29h-28.23h-7.22l-39.03-59.08H476.36z"/>
</g>
</svg>
