<?xml version="1.0" encoding="UTF-8"?><svg id="Layer_1" xmlns="http://www.w3.org/2000/svg" viewBox="0 0 228 226.81"><ellipse cx="114" cy="113.4" rx="114" ry="113.4" style="fill:#fff; stroke-width:0px;"/><path d="M113.73,154.38v42.52c0,.36.29.65.65.65h.18c.36,0,.65-.29.65-.65v-42.52c-.25,0-.5.01-.75.01s-.5,0-.75-.01Z" style="fill:#000; stroke-width:0px;"/><path d="M95.72,127.52h-51.01c-.36,0-.65.29-.65.65v.18c0,.36.29.65.65.65h50.53c.14-.51.3-1,.48-1.49Z" style="fill:#000; stroke-width:0px;"/><path d="M94.65,131.97l-14.23,1.47.14,1.33,13.98-1.45c.02-.46.06-.91.12-1.36Z" style="fill:#000; stroke-width:0px;"/><path d="M66.39,144.57l.04.18c.09.35.44.56.79.48l27.65-6.91c-.1-.49-.17-.98-.23-1.48l-27.78,6.94c-.35.09-.56.44-.48.79Z" style="fill:#000; stroke-width:0px;"/><path d="M85.84,147.48c.15.33.54.47.87.32l9.83-4.59c-.2-.4-.38-.81-.55-1.22l-9.85,4.6c-.33.15-.47.54-.32.87v.02Z" style="fill:#000; stroke-width:0px;"/><path d="M98.81,146.8l-41.2,27.42c-.3.2-.38.61-.18.91l.1.15c.2.3.61.38.91.18l41.35-27.52c-.34-.37-.66-.75-.97-1.14Z" style="fill:#000; stroke-width:0px;"/><path d="M93,161.65l.02.02c.27.24.69.21.92-.06l9.3-10.67c-.37-.25-.73-.52-1.08-.79l-9.23,10.58c-.24.27-.21.69.06.92Z" style="fill:#000; stroke-width:0px;"/><path d="M107.06,152.97l-15.91,24.89c-.19.3-.11.71.2.9l.15.1c.3.19.71.11.9-.2l16.09-25.18c-.49-.15-.97-.32-1.44-.51Z" style="fill:#000; stroke-width:0px;"/><path d="M105.12,169.67c-.12.33.05.7.38.83h.02c.34.14.73-.03.85-.38l5.75-15.87c-.45-.05-.9-.12-1.34-.2l-5.67,15.62Z" style="fill:#000; stroke-width:0px;"/><path d="M184.24,127.52h-51.01c.18.49.34.99.48,1.49h50.53c.36,0,.65-.29.65-.65v-.18c0-.36-.29-.65-.65-.65Z" style="fill:#000; stroke-width:0px;"/><path d="M148.4,134.77l.14-1.33-14.23-1.47c.05.45.09.9.12,1.36l13.98,1.45Z" style="fill:#000; stroke-width:0px;"/><path d="M161.73,145.22c.35.09.71-.13.79-.48l.04-.18c.09-.35-.13-.71-.48-.79l-27.78-6.94c-.06.5-.14.99-.23,1.48l27.65,6.91Z" style="fill:#000; stroke-width:0px;"/><path d="M132.42,143.21l9.83,4.59c.33.15.72.01.87-.32v-.02c.16-.33.02-.72-.3-.87l-9.85-4.6c-.17.41-.35.82-.55,1.22Z" style="fill:#000; stroke-width:0px;"/><path d="M171.35,174.22l-41.2-27.42c-.31.39-.64.77-.97,1.14l41.35,27.52c.3.2.71.12.91-.18l.1-.15c.2-.3.12-.71-.18-.91Z" style="fill:#000; stroke-width:0px;"/><path d="M135.01,161.6c.24.27.65.3.92.06l.02-.02c.27-.24.3-.65.06-.92l-9.23-10.58c-.35.28-.71.54-1.08.79l9.3,10.67Z" style="fill:#000; stroke-width:0px;"/><path d="M121.89,152.97c-.47.19-.95.36-1.44.51l16.09,25.18c.19.3.6.39.9.2l.15-.1c.3-.19.39-.6.2-.9l-15.91-24.89Z" style="fill:#000; stroke-width:0px;"/><path d="M118.17,154.05c-.44.08-.89.15-1.34.2l5.75,15.87c.13.35.51.52.85.39h.02c.33-.14.5-.51.38-.84l-5.67-15.62Z" style="fill:#000; stroke-width:0px;"/><polygon points="118.3 135.14 122.37 128.98 123.33 127.52 128.3 120 132.18 114.13 96.78 114.13 100.65 120 105.62 127.52 106.58 128.98 110.66 135.14 111.4 136.27 112.76 138.33 113.55 139.52 113.78 139.88 113.83 139.94 114.48 140.93 115.13 139.94 115.18 139.87 115.41 139.52 116.19 138.33 117.55 136.27 118.3 135.14" style="fill:#000; stroke-width:0px;"/><path d="M97.18,110.31h37.19l41.62-63H52.96s41.61,63,41.61,63h2.61ZM132.49,106.81h-16.2v-27.23h34.19l-17.99,27.23ZM137.94,50.81h31.54s-16.7,25.28-16.7,25.28h-14.85v-25.28ZM97.94,50.81h36.51s0,25.27,0,25.27h-36.51v-25.27ZM59.47,50.81h34.97s0,25.27,0,25.27h-18.28l-16.69-25.27ZM112.8,79.58v27.23h-16.34l-17.99-27.23h34.33Z" style="fill:#000; stroke-width:0px;"/></svg>